# xmcd
#
# Track frame offsets: 
#        150
#        13510
#        28370
#        42162
#        59315
#        75180
#        98492
#        111370
#        126550
#        142115
#        156327
#        172032
#
# Disc length: 2469 seconds
#
# Revision: 0
# Processed by: cddbd v1.5.1PL0 Copyright (c) Steve Scherf et al.
# Submitted via: ExactAudioCopy v0.95a5
#
DISCID=a009a30c
DTITLE=Alison Krauss - I Know Who Holds Tomorrow
DYEAR=1994
DGENRE=Bluegrass
TTITLE0=Walk over God's Heaven
TTITLE1=Will There Be Any Stars?
TTITLE2=Where No One Stands Alone
TTITLE3=Never Will Give Up
TTITLE4=Remind Me, Dear Lord
TTITLE5=I Know Who Holds Tomorrow
TTITLE6=Everybody Wants to Go to Heaven
TTITLE7=I'd Rather Have Jesus
TTITLE8=Far Side Bank of Jordan
TTITLE9=In the Palm of Your Hand
TTITLE10=Loves Me Like a Rock
TTITLE11=Jewels
EXTD=
EXTT0=
EXTT1=
EXTT2=
EXTT3=
EXTT4=
EXTT5=
EXTT6=
EXTT7=
EXTT8=
EXTT9=
EXTT10=
EXTT11=
PLAYORDER=
